<svg width="209" height="209" viewBox="0 0 209 209" fill="none" xmlns="http://www.w3.org/2000/svg">
<mask id="path-1-inside-1_200_25" fill="white">
<path d="M0 20C0 8.9543 8.95431 0 20 0H189C200.046 0 209 8.95431 209 20V189C209 200.046 200.046 209 189 209H20C8.9543 209 0 200.046 0 189V20Z"/>
</mask>
<path d="M0 20C0 8.9543 8.95431 0 20 0H189C200.046 0 209 8.95431 209 20V189C209 200.046 200.046 209 189 209H20C8.9543 209 0 200.046 0 189V20Z" fill="#385CCE"/>
<path d="M0 0H209H0ZM209 189C209 213.853 188.853 234 164 234H15C-9.85281 234 -30 213.853 -30 189L30 184H189C200.046 184 209 184 209 184V189ZM15 234C-9.85281 234 -30 213.853 -30 189V50C-30 22.3858 -7.61424 0 20 0H30C30 0 30 8.95431 30 20V184L15 234ZM209 0V209V0Z" fill="#2F4BAC" mask="url(#path-1-inside-1_200_25)"/>
</svg>
